<svg xmlns="http://www.w3.org/2000/svg" width="900" height="600" viewBox="0 0 90 60"><path d="M90 0H0v60z" fill="#003580"/><path d="M0 60h90V0z" fill="#009543"/><path d="M0 48L72 0h18v12L18 60H0z" fill="#fff"/><path d="M0 51L76.5 0H90v9L13.5 60H0z" fill="#d21034"/><path d="M18 6.5l1.553 4.204L23 7.84l-.757 4.417 4.417-.757-2.864 3.447L28 16.5l-4.204 1.553L26.66 21.5l-4.417-.757L23 25.16l-3.447-2.864L18 26.5l-1.553-4.204L13 25.16l.757-4.417-4.417.757 2.864-3.447L8 16.5l4.204-1.553L9.34 11.5l4.417.757L13 7.84l3.447 2.864z" fill="#ffce00"/><circle cx="18" cy="16.5" r="5.5" fill="#ffce00" stroke="#003580"/></svg>